<mxfile host="Electron" modified="2023-06-09T09:57:05.352Z" agent="Mozilla/5.0 (Macintosh; Intel Mac OS X 10_15_7) AppleWebKit/537.36 (KHTML, like Gecko) draw.io/21.2.8 Chrome/112.0.5615.165 Electron/24.2.0 Safari/537.36" etag="OdDWC_SNhNpxgcgNBSHb" version="21.2.8" type="device">
  <diagram name="Page-1" id="QmSr-4TKQR8N7m5TjDtL">
    <mxGraphModel dx="1114" dy="854" grid="1" gridSize="10" guides="1" tooltips="1" connect="1" arrows="1" fold="1" page="1" pageScale="1" pageWidth="827" pageHeight="1169" math="0" shadow="0">
      <root>
        <mxCell id="0" />
        <mxCell id="1" parent="0" />
        <mxCell id="dnYPMceCdqJ86rZ7KKY0-54" style="edgeStyle=orthogonalEdgeStyle;rounded=0;orthogonalLoop=1;jettySize=auto;html=1;exitX=0.5;exitY=1;exitDx=0;exitDy=0;entryX=0.5;entryY=1;entryDx=0;entryDy=0;fillColor=#f8cecc;strokeColor=#FF3333;strokeWidth=2;endArrow=block;endFill=1;" parent="1" source="dnYPMceCdqJ86rZ7KKY0-49" target="dnYPMceCdqJ86rZ7KKY0-51" edge="1">
          <mxGeometry relative="1" as="geometry">
            <Array as="points">
              <mxPoint x="180" y="350" />
              <mxPoint x="540" y="350" />
            </Array>
          </mxGeometry>
        </mxCell>
        <mxCell id="dnYPMceCdqJ86rZ7KKY0-88" value="Escalate" style="edgeLabel;html=1;align=center;verticalAlign=middle;resizable=0;points=[];" parent="dnYPMceCdqJ86rZ7KKY0-54" vertex="1" connectable="0">
          <mxGeometry x="-0.0095" y="1" relative="1" as="geometry">
            <mxPoint as="offset" />
          </mxGeometry>
        </mxCell>
        <mxCell id="dnYPMceCdqJ86rZ7KKY0-49" value="Operator" style="whiteSpace=wrap;html=1;rounded=1;strokeWidth=2;verticalAlign=bottom;" parent="1" vertex="1">
          <mxGeometry x="120" y="230" width="120" height="90" as="geometry" />
        </mxCell>
        <mxCell id="dnYPMceCdqJ86rZ7KKY0-55" style="edgeStyle=orthogonalEdgeStyle;rounded=0;orthogonalLoop=1;jettySize=auto;html=1;exitX=0.5;exitY=0;exitDx=0;exitDy=0;entryX=0.5;entryY=0;entryDx=0;entryDy=0;fillColor=#f8cecc;strokeColor=#FF3333;strokeWidth=2;endArrow=block;endFill=1;" parent="1" source="dnYPMceCdqJ86rZ7KKY0-51" target="dnYPMceCdqJ86rZ7KKY0-49" edge="1">
          <mxGeometry relative="1" as="geometry">
            <Array as="points">
              <mxPoint x="540" y="170" />
              <mxPoint x="180" y="170" />
            </Array>
          </mxGeometry>
        </mxCell>
        <mxCell id="dnYPMceCdqJ86rZ7KKY0-87" value="Delegate" style="edgeLabel;html=1;align=center;verticalAlign=middle;resizable=0;points=[];" parent="dnYPMceCdqJ86rZ7KKY0-55" vertex="1" connectable="0">
          <mxGeometry x="0.0458" y="-3" relative="1" as="geometry">
            <mxPoint as="offset" />
          </mxGeometry>
        </mxCell>
        <mxCell id="dnYPMceCdqJ86rZ7KKY0-51" value="DBA" style="whiteSpace=wrap;html=1;rounded=1;strokeWidth=2;verticalAlign=bottom;" parent="1" vertex="1">
          <mxGeometry x="480" y="230" width="120" height="90" as="geometry" />
        </mxCell>
        <mxCell id="dnYPMceCdqJ86rZ7KKY0-52" value="" style="html=1;verticalLabelPosition=bottom;align=center;labelBackgroundColor=#ffffff;verticalAlign=top;strokeWidth=1;shadow=0;dashed=0;shape=mxgraph.ios7.icons.data;" parent="1" vertex="1">
          <mxGeometry x="320" y="220" width="80" height="80" as="geometry" />
        </mxCell>
        <mxCell id="dnYPMceCdqJ86rZ7KKY0-56" style="edgeStyle=orthogonalEdgeStyle;rounded=0;orthogonalLoop=1;jettySize=auto;html=1;exitX=0.5;exitY=0;exitDx=0;exitDy=0;entryX=0.5;entryY=1;entryDx=0;entryDy=0;strokeWidth=2;strokeColor=#FF3333;endArrow=none;endFill=0;" parent="1" source="dnYPMceCdqJ86rZ7KKY0-53" target="dnYPMceCdqJ86rZ7KKY0-51" edge="1">
          <mxGeometry relative="1" as="geometry">
            <mxPoint x="549.04" y="330" as="sourcePoint" />
            <mxPoint x="549.04" y="282" as="targetPoint" />
          </mxGeometry>
        </mxCell>
        <mxCell id="dnYPMceCdqJ86rZ7KKY0-53" value="Developer" style="whiteSpace=wrap;html=1;rounded=1;strokeWidth=2;verticalAlign=bottom;" parent="1" vertex="1">
          <mxGeometry x="480" y="370" width="120" height="90" as="geometry" />
        </mxCell>
        <mxCell id="dnYPMceCdqJ86rZ7KKY0-57" value="" style="shape=actor;whiteSpace=wrap;html=1;" parent="1" vertex="1">
          <mxGeometry x="490" y="380" width="40" height="50" as="geometry" />
        </mxCell>
        <mxCell id="dnYPMceCdqJ86rZ7KKY0-58" value="" style="shape=actor;whiteSpace=wrap;html=1;" parent="1" vertex="1">
          <mxGeometry x="490" y="240" width="40" height="50" as="geometry" />
        </mxCell>
        <mxCell id="dnYPMceCdqJ86rZ7KKY0-59" value="" style="shape=actor;whiteSpace=wrap;html=1;" parent="1" vertex="1">
          <mxGeometry x="130" y="240" width="40" height="50" as="geometry" />
        </mxCell>
        <mxCell id="dnYPMceCdqJ86rZ7KKY0-60" value="" style="sketch=0;outlineConnect=0;fontColor=#232F3E;gradientColor=none;fillColor=#232F3D;strokeColor=none;dashed=0;verticalLabelPosition=bottom;verticalAlign=top;align=center;html=1;fontSize=12;fontStyle=0;aspect=fixed;pointerEvents=1;shape=mxgraph.aws4.source_code;" parent="1" vertex="1">
          <mxGeometry x="546.73" y="380" width="36.53" height="50" as="geometry" />
        </mxCell>
        <mxCell id="dnYPMceCdqJ86rZ7KKY0-63" value="" style="html=1;verticalLabelPosition=bottom;align=center;labelBackgroundColor=#ffffff;verticalAlign=top;strokeWidth=2;strokeColor=#000000;shadow=0;dashed=0;shape=mxgraph.ios7.icons.settings;" parent="1" vertex="1">
          <mxGeometry x="540" y="245" width="50" height="45" as="geometry" />
        </mxCell>
        <mxCell id="dnYPMceCdqJ86rZ7KKY0-75" value="" style="sketch=0;pointerEvents=1;shadow=0;dashed=0;html=1;strokeColor=none;fillColor=#505050;labelPosition=center;verticalLabelPosition=bottom;verticalAlign=top;outlineConnect=0;align=center;shape=mxgraph.office.servers.monitoring_sql_reporting_services;" parent="1" vertex="1">
          <mxGeometry x="180" y="240" width="50" height="50" as="geometry" />
        </mxCell>
        <mxCell id="dnYPMceCdqJ86rZ7KKY0-77" value="Monitor" style="html=1;shadow=0;dashed=0;align=center;verticalAlign=middle;shape=mxgraph.arrows2.arrow;dy=0.67;dx=20;notch=0;fontSize=10;horizontal=1;fillColor=none;strokeColor=#d79b00;" parent="1" vertex="1">
          <mxGeometry x="246" y="217" width="70" height="40" as="geometry" />
        </mxCell>
        <mxCell id="dnYPMceCdqJ86rZ7KKY0-79" value="Adjust" style="html=1;shadow=0;dashed=0;align=center;verticalAlign=middle;shape=mxgraph.arrows2.arrow;dy=0.67;dx=20;notch=0;fontSize=10;horizontal=1;fillColor=none;strokeColor=#b85450;" parent="1" vertex="1">
          <mxGeometry x="246" y="280" width="70" height="40" as="geometry" />
        </mxCell>
        <mxCell id="dnYPMceCdqJ86rZ7KKY0-80" value="Events" style="html=1;shadow=0;dashed=0;align=center;verticalAlign=middle;shape=mxgraph.arrows2.arrow;dy=0.67;dx=20;notch=0;fontSize=10;horizontal=1;flipV=0;flipH=1;fillColor=none;strokeColor=#9673a6;" parent="1" vertex="1">
          <mxGeometry x="242" y="248" width="70" height="40" as="geometry" />
        </mxCell>
        <mxCell id="dnYPMceCdqJ86rZ7KKY0-81" value="Lifecycle" style="html=1;shadow=0;dashed=0;align=center;verticalAlign=middle;shape=mxgraph.arrows2.arrow;dy=0.67;dx=20;notch=0;fontSize=10;horizontal=1;flipV=0;flipH=1;fillColor=none;strokeColor=#d6b656;" parent="1" vertex="1">
          <mxGeometry x="404" y="178" width="70" height="40" as="geometry" />
        </mxCell>
        <mxCell id="dnYPMceCdqJ86rZ7KKY0-82" value="Tune" style="html=1;shadow=0;dashed=0;align=center;verticalAlign=middle;shape=mxgraph.arrows2.arrow;dy=0.67;dx=20;notch=0;fontSize=10;horizontal=1;flipV=0;flipH=1;fillColor=none;strokeColor=#82b366;" parent="1" vertex="1">
          <mxGeometry x="404" y="221" width="70" height="40" as="geometry" />
        </mxCell>
        <mxCell id="dnYPMceCdqJ86rZ7KKY0-83" value="Manage" style="html=1;shadow=0;dashed=0;align=center;verticalAlign=middle;shape=mxgraph.arrows2.arrow;dy=0.67;dx=20;notch=0;fontSize=10;horizontal=1;flipV=0;flipH=1;fillColor=none;fontColor=#333333;strokeColor=#666666;" parent="1" vertex="1">
          <mxGeometry x="404" y="263" width="70" height="40" as="geometry" />
        </mxCell>
        <mxCell id="dnYPMceCdqJ86rZ7KKY0-84" value="Deploy" style="html=1;shadow=0;dashed=0;align=center;verticalAlign=middle;shape=mxgraph.arrows2.arrow;dy=0.67;dx=20;notch=0;fontSize=10;horizontal=1;flipV=0;flipH=1;fillColor=none;strokeColor=#6c8ebf;" parent="1" vertex="1">
          <mxGeometry x="404" y="305" width="70" height="40" as="geometry" />
        </mxCell>
      </root>
    </mxGraphModel>
  </diagram>
</mxfile>
